Coordinates
version=1
nRows=14
nColumns=63
inDegrees=yes

Units are S.I. units (second, meters, Newtons, ...)
If the header above contains a line with 'inDegrees', this indicates whether rotational values are in degrees (yes) or radians (no).

endheader
time	pelvis_tilt	pelvis_list	pelvis_rotation	pelvis_tx	pelvis_ty	pelvis_tz	hip_flexion_r	hip_adduction_r	hip_rotation_r	knee_angle_r	knee_angle_r_beta	ankle_angle_r	subtalar_angle_r	mtp_angle_r	hip_flexion_l	hip_adduction_l	hip_rotation_l	knee_angle_l	knee_angle_l_beta	ankle_angle_l	subtalar_angle_l	mtp_angle_l	L5_S1_Flex_Ext	L5_S1_Lat_Bending	L5_S1_axial_rotation	L4_L5_Flex_Ext	L4_L5_Lat_Bending	L4_L5_axial_rotation	L3_L4_Flex_Ext	L3_L4_Lat_Bending	L3_L4_axial_rotation	L2_L3_Flex_Ext	L2_L3_Lat_Bending	L2_L3_axial_rotation	L1_L2_Flex_Ext	L1_L2_Lat_Bending	L1_L2_axial_rotation	L1_T12_Flex_Ext	L1_T12_Lat_Bending	L1_T12_axial_rotation	Abs_r3	Abs_r2	Abs_r1	Abs_t1	Abs_t2	neck_flexion	neck_bending	neck_rotation	arm_flex_r	arm_add_r	arm_rot_r	elbow_flex_r	pro_sup_r	wrist_flex_r	wrist_dev_r	arm_flex_l	arm_add_l	arm_rot_l	elbow_flex_l	pro_sup_l	wrist_flex_l	wrist_dev_l
1.347826	3.614989	-5.678959	89.497815	0.213943	0.971210	0.555438	-1.648591	-0.449112	2.251899	2.533520	0.044218	23.903525	7.940229	0.000000	-0.089367	-0.936093	1.193347	4.257455	0.074307	23.097826	3.077651	0.000000	-0.075416	-0.082624	-2.144345	-0.140055	-0.109890	-2.278367	-0.123901	-0.200892	-2.278367	-0.086193	-0.200892	-1.876302	-0.070031	-0.168487	-1.742280	-0.043093	-0.127985	-1.608259	-0.538688	-0.934660	-11.926205	0.000000	0.000000	7.863592	-0.558594	12.710149	12.418586	-11.794687	84.447245	23.534221	63.916379	-8.618784	-1.187418	-8.539692	-16.141700	32.039946	32.211086	86.456856	-7.043974	6.953136
1.369565	3.701689	-5.637546	89.302103	0.214113	0.971467	0.554803	-1.741882	-0.359491	2.811651	2.475980	0.043214	23.801532	7.419396	0.000000	-0.186143	-1.007318	1.232833	4.284674	0.074782	23.189687	3.007861	0.000000	-0.071631	-0.073640	-2.129376	-0.133027	-0.097941	-2.262462	-0.117683	-0.179048	-2.262462	-0.081868	-0.179048	-1.863204	-0.066517	-0.150166	-1.730118	-0.040930	-0.114068	-1.597032	-0.511657	-0.833029	-11.842948	0.000000	0.000000	7.560769	-0.873395	12.985157	12.114392	-11.835315	83.130925	23.627384	64.166292	-8.476984	-1.286041	-7.893083	-15.980675	33.881984	31.444746	86.263388	-7.390617	6.467299
1.391304	3.788439	-5.578265	89.125454	0.214307	0.971686	0.554179	-1.854234	-0.267585	3.251531	2.435656	0.042510	23.708029	7.031735	0.000000	-0.317001	-1.082204	1.280271	4.277597	0.074658	23.258037	2.890973	0.000000	-0.069983	-0.064846	-2.117635	-0.129966	-0.086245	-2.249987	-0.114976	-0.157666	-2.249987	-0.079984	-0.157666	-1.852930	-0.064987	-0.132233	-1.720578	-0.039989	-0.100446	-1.588226	-0.499885	-0.733546	-11.777648	0.000000	0.000000	7.260841	-1.141823	13.345395	11.860764	-11.877185	81.964023	23.719169	64.549755	-8.299835	-1.325769	-7.375308	-15.846266	35.258453	30.901316	86.274995	-7.745631	6.126573
1.413043	3.876240	-5.505567	88.968338	0.214513	0.971851	0.553611	-1.973797	-0.172632	3.578707	2.414323	0.042138	23.631983	6.773774	0.000000	-0.467560	-1.161594	1.332040	4.249406	0.074166	23.296094	2.703707	0.000000	-0.070688	-0.056112	-2.108487	-0.131274	-0.074629	-2.240267	-0.116133	-0.136432	-2.240267	-0.080789	-0.136432	-1.844926	-0.065641	-0.114424	-1.713146	-0.040391	-0.086918	-1.581365	-0.504914	-0.634755	-11.726772	0.000000	0.000000	6.974146	-1.350867	13.779787	11.680352	-11.921399	81.080712	23.811459	65.020310	-8.167000	-1.328086	-6.979307	-15.751160	36.270231	30.592883	86.297149	-8.157132	5.851267
1.434783	3.959004	-5.425726	88.827255	0.214729	0.971950	0.553132	-2.089533	-0.082424	3.783563	2.413777	0.042128	23.584696	6.674809	0.000000	-0.619194	-1.241426	1.289608	4.220046	0.073654	23.336824	2.570819	0.000000	-0.073365	-0.048132	-2.105046	-0.136247	-0.064016	-2.236612	-0.120532	-0.117029	-2.236612	-0.083849	-0.117029	-1.841916	-0.068127	-0.098152	-1.710350	-0.041921	-0.074557	-1.578785	-0.524040	-0.544483	-11.707637	0.000000	0.000000	6.712094	-1.502815	14.259642	11.593343	-11.952985	80.565262	23.886385	65.502902	-8.068777	-1.315383	-6.720738	-15.677022	36.848532	30.498197	86.351477	-8.577737	5.617839
1.456522	4.037054	-5.340633	88.721996	0.214922	0.971987	0.552758	-2.201128	0.003078	3.825268	2.433285	0.042469	23.563288	6.755175	0.000000	-0.759111	-1.323721	1.128932	4.204186	0.073377	23.397280	2.553404	0.000000	-0.077946	-0.040693	-2.111834	-0.144754	-0.054121	-2.243824	-0.128058	-0.098940	-2.243824	-0.089085	-0.098940	-1.847855	-0.072381	-0.082981	-1.715865	-0.044538	-0.063033	-1.583876	-0.556761	-0.460324	-11.745390	0.000000	0.000000	6.478883	-1.594213	14.765376	11.589713	-11.973856	80.371040	23.949556	65.897338	-7.985097	-1.296044	-6.574599	-15.623120	37.066808	30.565492	86.400853	-8.977146	5.427214
1.478261	4.109311	-5.246782	88.655917	0.215072	0.971981	0.552489	-2.312985	0.081306	3.691429	2.473862	0.043177	23.558895	7.021019	0.000000	-0.894559	-1.405908	0.866965	4.193330	0.073187	23.477301	2.657348	0.000000	-0.084683	-0.034391	-2.129087	-0.157264	-0.045740	-2.262155	-0.139125	-0.083618	-2.262155	-0.096784	-0.083618	-1.862951	-0.078636	-0.070130	-1.729883	-0.048388	-0.053272	-1.596815	-0.604879	-0.389039	-11.841344	0.000000	0.000000	6.263858	-1.609734	15.226186	11.661523	-11.975643	80.504053	23.987544	66.111891	-7.919821	-1.307103	-6.530810	-15.568244	36.932706	30.737115	86.393489	-9.358046	5.257181
1.500000	4.176164	-5.171753	88.639571	0.215177	0.971892	0.552295	-2.401986	0.152591	3.397680	2.527006	0.044105	23.579608	7.455727	0.000000	-0.986540	-1.487974	0.530769	4.206551	0.073418	23.578654	2.846727	0.000000	-0.087672	-0.028293	-2.162324	-0.162816	-0.037629	-2.297469	-0.144037	-0.068791	-2.297469	-0.100201	-0.068791	-1.892034	-0.081412	-0.057695	-1.756888	-0.050096	-0.043826	-1.621743	-0.626234	-0.320054	-12.026198	0.000000	0.000000	6.041919	-1.581586	15.683475	11.804290	-11.965261	80.961440	24.030378	66.043007	-7.831407	-1.247625	-6.613258	-15.513561	36.471660	31.024839	86.325795	-9.694054	5.139293
1.521739	4.236870	-5.100697	88.690779	0.215211	0.971761	0.552176	-2.499255	0.225023	3.157250	2.558801	0.044659	23.563426	7.728679	0.000000	-1.059068	-1.564623	0.259124	4.221066	0.073671	23.670480	2.980235	0.000000	-0.090055	-0.023080	-2.216267	-0.167240	-0.030696	-2.354783	-0.147951	-0.056116	-2.354783	-0.102923	-0.056116	-1.939233	-0.083625	-0.047064	-1.800717	-0.051457	-0.035751	-1.662200	-0.643251	-0.261084	-12.326210	0.000000	0.000000	5.828070	-1.487861	16.121278	12.064783	-11.916445	81.996099	24.006287	65.463204	-7.661021	-1.249563	-6.798430	-15.454932	35.772570	31.367884	86.075612	-10.014178	4.937096
1.543478	4.281857	-5.042800	88.765093	0.215225	0.971590	0.552135	-2.571301	0.276375	2.734239	2.605599	0.045476	23.573755	8.226630	0.000000	-1.104917	-1.628415	-0.102735	4.241778	0.074033	23.775974	3.212202	0.000000	-0.091856	-0.020056	-2.278075	-0.170586	-0.026675	-2.420455	-0.150911	-0.048765	-2.420455	-0.104982	-0.048765	-1.993316	-0.085298	-0.040899	-1.850936	-0.052487	-0.031067	-1.708557	-0.656120	-0.226880	-12.669972	0.000000	0.000000	5.659663	-1.374493	16.444275	12.341082	-11.839595	83.082480	23.957550	64.873884	-7.439884	-1.216812	-7.078103	-15.371584	34.765137	31.769518	85.781273	-10.260739	4.730926
1.565217	4.314098	-4.996799	88.839202	0.215221	0.971420	0.552192	-2.614155	0.307839	2.191126	2.667271	0.046553	23.602820	8.896203	0.000000	-1.124940	-1.680075	-0.531628	4.271089	0.074545	23.886837	3.507102	0.000000	-0.095782	-0.018483	-2.336605	-0.177877	-0.024582	-2.482643	-0.157361	-0.044939	-2.482643	-0.109469	-0.044939	-2.044529	-0.088943	-0.037690	-1.898491	-0.054730	-0.028630	-1.752454	-0.684162	-0.209079	-12.995494	0.000000	0.000000	5.568404	-1.244640	16.644618	12.618947	-11.737550	84.175660	23.859257	64.232279	-7.181946	-1.216140	-7.378659	-15.259490	33.592208	32.168976	85.514011	-10.449138	4.512752
1.586957	4.331046	-4.989384	88.950424	0.215169	0.971205	0.552309	-2.609067	0.317497	1.488039	2.731923	0.047681	23.676367	9.766069	0.000000	-1.087666	-1.721783	-0.993985	4.310095	0.075225	24.014708	3.913265	0.000000	-0.098075	-0.018610	-2.400015	-0.182136	-0.024751	-2.550016	-0.161128	-0.045248	-2.550016	-0.112090	-0.045248	-2.100013	-0.091073	-0.037949	-1.950012	-0.056040	-0.028827	-1.800011	-0.700543	-0.210519	-13.348162	0.000000	0.000000	5.576961	-1.140565	16.692602	12.899205	-11.629230	85.297295	23.756409	63.470069	-6.872307	-1.226396	-7.728760	-15.136520	32.241063	32.603311	85.245303	-10.518910	4.294971
1.608696	4.340117	-5.008408	89.029754	0.215146	0.971007	0.552493	-2.575350	0.325268	1.117956	2.765823	0.048273	23.682245	10.209795	0.000000	-1.013953	-1.762767	-1.648377	4.359042	0.076080	24.174896	4.558156	0.000000	-0.101810	-0.019002	-2.440262	-0.189072	-0.025273	-2.592778	-0.167264	-0.046202	-2.592778	-0.116359	-0.046202	-2.135229	-0.094541	-0.038749	-1.982713	-0.058174	-0.029434	-1.830197	-0.727219	-0.214956	-13.572006	0.000000	0.000000	5.682668	-1.035658	16.569394	13.057658	-11.559886	85.777582	23.697739	63.200482	-6.507987	-1.178909	-7.982403	-15.041967	31.185073	32.977331	84.911656	-10.632112	4.013082
1.630435	4.346555	-5.054552	89.067109	0.215139	0.970828	0.552719	-2.502780	0.329173	0.910196	2.787062	0.048643	23.685767	10.497281	0.000000	-0.920134	-1.797139	-2.211417	4.387843	0.076582	24.300735	5.079136	0.000000	-0.106408	-0.018593	-2.459338	-0.197610	-0.024729	-2.613047	-0.174817	-0.045208	-2.613047	-0.121614	-0.045208	-2.151921	-0.098810	-0.037916	-1.998213	-0.060801	-0.028801	-1.844504	-0.760061	-0.210333	-13.678103	0.000000	0.000000	5.872184	-0.906951	16.325867	13.130631	-11.530145	85.851958	23.680669	63.209290	-6.153496	-1.121210	-8.182689	-14.931850	30.210000	33.292052	84.649972	-10.709615	3.755819
